<svg xmlns="http://www.w3.org/2000/svg" width="24" height="24"><g fill="none" fill-rule="evenodd" stroke-linecap="round" stroke-linejoin="round"><path stroke="#000" d="M16.474 15.508h3.962m-3.962 0h3.962m-3.962-3h3.962m-3.962 0h3.962m-3.962-3h1.962m-1.962 0h1.962M21.5 23.5h-19a2 2 0 0 1-2-2v-19a2 2 0 0 1 2-2h19a2 2 0 0 1 2 2v19a2 2 0 0 1-2 2z"/><path stroke="#231F20" d="M3.497 18.54c0-.908.613-1.212 1.491-1.44 1.09-.284 1.756-1.416 1.885-1.855v-1.01c-2.12-.007-2.96-.73-2.96-.73.884-.533 1.164-4.247 1.164-4.247 0-2.036 1.47-3.795 3.412-3.795 2.046 0 3.412 1.862 3.412 3.795 0 0 .281 3.714 1.165 4.246 0 0-.84.724-2.962.731v1.01c.13.44.797 1.571 1.886 1.855.878.228 1.49.532 1.49 1.44"/></g></svg>