<svg width="24" height="24" viewBox="0 0 24 24" fill="none" xmlns="http://www.w3.org/2000/svg">
<g clip-path="url(#clip0_4_7621)">
<path d="M21.5402 6.96C21.3002 7.1 21.2202 7.4 21.3502 7.64C22.2302 9.32 22.6702 11.26 22.5002 13.32C22.1002 18.33 18.1002 22.44 13.0902 22.95C6.51022 23.61 0.99022 18.18 1.50022 11.63C1.85022 7.1 5.17022 3.25 9.60022 2.21C11.7402 1.71 13.7702 1.91 15.5802 2.57L14.9502 4.16L19.6602 3.85L16.6002 0L15.9502 1.64V1.65C14.0902 0.97 12.0202 0.72 9.84022 1.15C4.72022 2.15 0.81022 6.53 0.49022 11.74C0.0502199 18.86 6.07022 24.7 13.2502 23.94C18.5002 23.39 22.7602 19.22 23.4402 13.99C23.7602 11.51 23.2802 9.16 22.2302 7.16C22.1002 6.9 21.7802 6.82 21.5402 6.96Z" fill="#150F11"/>
<path d="M18.4305 7.63965L13.2405 5.48965C13.1205 5.43965 12.9805 5.43965 12.8605 5.48965C12.7405 5.53965 12.6405 5.63965 12.5905 5.75965L11.5905 8.16965L9.54051 9.00965L5.83051 7.47965C5.64051 7.39965 5.43051 7.43965 5.29051 7.57965C5.15051 7.71965 5.10051 7.93965 5.18051 8.12965L6.29051 10.7996V17.1797C6.29051 17.3797 6.41051 17.5596 6.60051 17.6397L11.7905 19.7897C11.8505 19.8197 11.9205 19.8297 11.9805 19.8297C12.0405 19.8297 12.1105 19.8197 12.1705 19.7897L17.3605 17.6397C17.5505 17.5596 17.6705 17.3797 17.6705 17.1797V10.7996L18.7105 8.28965C18.8005 8.02965 18.6805 7.73965 18.4305 7.63965ZM6.56051 8.85965L10.4405 10.4696L11.0405 11.9196L7.16051 10.3096L6.56051 8.85965ZM11.4705 18.5797L7.28051 16.8397V15.7597L11.4705 17.4997V18.5797ZM11.4705 16.4197L7.28051 14.6797V13.5997L11.4705 15.3397V16.4197ZM11.4705 14.2597L7.28051 12.5196V11.4396L11.4705 13.1796V14.2597ZM11.2905 9.89965C11.2405 9.77965 11.1405 9.67965 11.0205 9.62965L10.8505 9.55965L11.9705 9.08965L15.8505 10.6996L12.2405 12.1996L11.2905 9.89965ZM16.8905 10.0496L12.6205 8.27965L13.3105 6.59965L17.5805 8.36965L16.8905 10.0496Z" fill="black"/>
<path d="M16.6605 16.8402L12.4705 18.5802V13.1802L16.6605 11.4502V16.8402Z" fill="white"/>
</g>
<defs>
<clipPath id="clip0_4_7621">
<rect width="24" height="24" fill="white"/>
</clipPath>
</defs>
</svg>