<svg xmlns="http://www.w3.org/2000/svg" width="24" height="24" fill="none" viewBox="0 0 24 24">
  <path stroke="#231F20" stroke-linecap="round" stroke-linejoin="round" d="M13.375 16.583a5.958 5.958 0 1 1-11.916 0 5.958 5.958 0 0 1 11.916 0Z" clip-rule="evenodd"/>
  <path stroke="#231F20" stroke-linecap="round" stroke-linejoin="round" d="m1.524 16.976 6.285-6.285m-5.75 8.5 7.965-7.965m-6.82 9.57 8.426-8.426m-6.822 9.572 7.967-7.966m-5.8 8.549 6.384-6.383"/>
  <path fill="#fff" fill-rule="evenodd" d="M12 1.458a5.958 5.958 0 1 1 0 11.916 5.958 5.958 0 0 1 0-11.916Z" clip-rule="evenodd"/>
  <path stroke="#231F20" stroke-linecap="round" stroke-linejoin="round" d="M12 1.458a5.958 5.958 0 1 1 0 11.916 5.958 5.958 0 0 1 0-11.916Z" clip-rule="evenodd"/>
  <path stroke="#231F20" stroke-linecap="round" stroke-linejoin="round" d="M13.245 13.245 6.172 6.172m10.041 5.458L7.787 3.204m10.041 5.458-7.073-7.073"/>
  <path fill="#fff" fill-rule="evenodd" d="M22.542 16.583a5.958 5.958 0 1 1-11.917 0 5.958 5.958 0 0 1 11.917 0Z" clip-rule="evenodd"/>
  <path stroke="#231F20" stroke-linecap="round" stroke-linejoin="round" d="M22.542 16.583a5.958 5.958 0 1 1-11.917 0 5.958 5.958 0 0 1 11.917 0Z" clip-rule="evenodd"/>
</svg>
