<svg xmlns="http://www.w3.org/2000/svg" xmlns:xlink="http://www.w3.org/1999/xlink" width="48" height="32" viewBox="0 0 48 32"><defs><path id="a" d="M0 0h48v32H0z"/></defs><g fill="none"><use fill="#FFF" fill-rule="evenodd" xlink:href="#a"/><path stroke="#CCC" stroke-width=".5" d="M.25.25v31.5h47.5V.25H.25z"/><path fill="#BF0A30" d="M0 0h12v32H0V0zm36 0h12v32H36V0zM15.59 15.463l-.933.3 4.336 3.59c.328.924-.114 1.196-.395 1.68l4.707-.564-.122 4.47.975-.028-.213-4.432 4.712.527c-.29-.58-.55-.89-.28-1.82l4.333-3.4-.76-.26c-.62-.45.27-2.174.403-3.26 0 0-2.53.82-2.696.39l-.644-1.167-2.302 2.386c-.25.056-.358-.038-.417-.24l1.063-4.984-1.684.894c-.14.057-.282.008-.374-.147l-1.62-3.068-1.67 3.185c-.126.114-.252.127-.357.05l-1.602-.85.962 4.947c-.076.196-.26.252-.475.145l-2.2-2.36c-.29.436-.484 1.147-.864 1.306-.38.15-1.654-.3-2.508-.477.29.992 1.204 2.643.626 3.184z"/></g></svg>