<svg width="32" height="32" fill="none" xmlns="http://www.w3.org/2000/svg"><mask id="a" mask-type="alpha" maskUnits="userSpaceOnUse" x="1" y="4" width="26" height="20"><path d="M1 4.729h25.857v18.4H1v-18.4z" fill="#fff"/></mask><g mask="url(#a)"><path fill-rule="evenodd" clip-rule="evenodd" d="M3.502 5.729C2.674 5.729 2 6.402 2 7.23v13.397c0 .828.674 1.501 1.502 1.501h20.853c.828 0 1.502-.674 1.502-1.501V7.23c0-.828-.674-1.501-1.502-1.501H3.502zm20.853 17.4H3.502A2.505 2.505 0 0 1 1 20.627V7.23a2.505 2.505 0 0 1 2.502-2.502h20.853a2.504 2.504 0 0 1 2.502 2.502v13.397a2.504 2.504 0 0 1-2.502 2.502z" fill="#fff"/></g><path fill-rule="evenodd" clip-rule="evenodd" d="M28.5 27.59H7.643a2.504 2.504 0 0 1-2.502-2.502h1c0 .827.675 1.501 1.502 1.501H28.5c.827 0 1.5-.674 1.5-1.501V11.69c0-.828-.673-1.501-1.5-1.501v-1C29.878 9.19 31 10.31 31 11.69v13.397a2.504 2.504 0 0 1-2.5 2.502z" fill="#fff"/><path fill-rule="evenodd" clip-rule="evenodd" d="M1.5 12.227h24.857v-3.16H1.5v3.16zM12.478 15.749H4.193a.572.572 0 0 1-.57-.57c0-.313.257-.57.57-.57h8.285c.313 0 .57.257.57.57 0 .314-.257.57-.57.57zM7.263 18.027h-3.07a.573.573 0 0 1-.57-.569c0-.313.257-.57.57-.57h3.07c.313 0 .57.257.57.57 0 .312-.257.57-.57.57zM12.478 18.027h-3.07a.573.573 0 0 1-.57-.569c0-.313.257-.57.57-.57h3.07c.313 0 .57.257.57.57 0 .312-.257.57-.57.57zM17.694 18.027h-3.07a.573.573 0 0 1-.57-.569c0-.313.256-.57.57-.57h3.07c.313 0 .57.257.57.57 0 .312-.257.57-.57.57zM22.23 16.62c-.775 0-1.407.632-1.407 1.407a1.408 1.408 0 0 0 2.814 0c0-.775-.631-1.406-1.407-1.406zm0 3.564a2.16 2.16 0 0 1-2.156-2.157 2.16 2.16 0 0 1 2.156-2.157 2.16 2.16 0 0 1 2.157 2.158 2.159 2.159 0 0 1-2.157 2.156z" fill="#fff"/></svg>