<svg xmlns="http://www.w3.org/2000/svg" xmlns:xlink="http://www.w3.org/1999/xlink" width="24" height="24"><defs><path id="a" d="M0 .606h20.805v14.805H0z"/></defs><g fill="none" fill-rule="evenodd"><g transform="translate(0 2.394)"><mask id="b" fill="#fff"><use xlink:href="#a"/></mask><path fill="#000" d="M2.013 1.41A1.21 1.21 0 00.805 2.619v10.779a1.21 1.21 0 001.208 1.208h16.779A1.21 1.21 0 0020 13.398V2.618a1.21 1.21 0 00-1.208-1.207H2.012zm16.779 14H2.012A2.013 2.013 0 010 13.399V2.618C0 1.509.903.607 2.013.607h16.779c1.11 0 2.013.903 2.013 2.013v10.779c0 1.11-.902 2.013-2.013 2.013z" mask="url(#b)"/></g><path fill="#000" d="M22.126 21.394H5.346a2.015 2.015 0 01-2.013-2.013h.805a1.21 1.21 0 001.208 1.208h16.78a1.21 1.21 0 001.207-1.208V8.602a1.21 1.21 0 00-1.207-1.208v-.805c1.109 0 2.012.903 2.012 2.013v10.779c0 1.11-.903 2.013-2.012 2.013"/><path fill="#000" d="M.402 9.033h20V6.491h-20zm8.833 2.834H2.57c-.252 0-.459-.206-.459-.458s.207-.46.46-.46h6.665c.252 0 .46.208.46.46s-.208.458-.46.458M5.04 13.7H2.57a.46.46 0 01-.46-.458c0-.252.207-.459.46-.459h2.47a.46.46 0 01.458.46.46.46 0 01-.459.457m4.196 0h-2.47a.46.46 0 01-.459-.458c0-.252.207-.459.46-.459h2.47a.46.46 0 01.458.46.46.46 0 01-.459.457m4.197 0h-2.47a.462.462 0 01-.46-.458c0-.252.208-.459.46-.459h2.47c.252 0 .459.207.459.46a.46.46 0 01-.46.457m3.651-1.132a1.133 1.133 0 101.132 1.133c0-.625-.508-1.133-1.132-1.133m0 2.867a1.737 1.737 0 01-1.735-1.735c0-.957.778-1.736 1.735-1.736.957 0 1.735.78 1.735 1.736s-.778 1.735-1.735 1.735"/></g></svg>