<?xml version="1.0" encoding="utf-8"?>
<!-- Generator: Adobe Illustrator 16.0.0, SVG Export Plug-In . SVG Version: 6.00 Build 0)  -->
<!DOCTYPE svg PUBLIC "-//W3C//DTD SVG 1.1//EN" "http://www.w3.org/Graphics/SVG/1.1/DTD/svg11.dtd">
<svg version="1.1" id="Layer_1" xmlns="http://www.w3.org/2000/svg" xmlns:xlink="http://www.w3.org/1999/xlink" x="0px" y="0px"
	 width="90px" height="90px" viewBox="0 0 500 500" enable-background="new 0 0 500 500" xml:space="preserve">
<g>
	<defs>
		<rect id="SVGID_1_" width="500" height="500"/>
	</defs>
	<clipPath id="SVGID_2_">
		<use xlink:href="#SVGID_1_"  overflow="visible"/>
	</clipPath>
	<path clip-path="url(#SVGID_2_)" d="M357.843,215.413l-13.904-59.837L99.095,212.475l22.623,97.352
		c2.04,8.773,10.803,14.232,19.577,12.194l5.968-1.388v-84.181c0-11.601,9.439-21.039,21.038-21.039H357.843z"/>
	<path clip-path="url(#SVGID_2_)" d="M338.225,130.988c-2.039-8.773-10.804-14.232-19.576-12.193l-213.074,49.515
		c-8.773,2.038-14.232,10.803-12.193,19.576l0.781,3.359l244.843-56.898L338.225,130.988z"/>
	<path clip-path="url(#SVGID_2_)" d="M394.423,223.827h-34.625H168.302c-6.972,0-12.623,5.651-12.623,12.622v82.229v50.332
		c0,6.971,5.651,12.622,12.623,12.622h226.121c6.972,0,12.623-5.651,12.623-12.622V236.449
		C407.046,229.478,401.395,223.827,394.423,223.827 M191.35,278.035c0-2.324,1.884-4.208,4.208-4.208h26.585
		c2.324,0,4.208,1.884,4.208,4.208v22.208c0,0.812-0.292,1.528-0.69,2.172c-0.743,1.196-2.007,2.036-3.518,2.036h-5.244h-21.341
		c-2.324,0-4.208-1.884-4.208-4.208V278.035z M265.797,336.033H191.35v-6.286h74.447V336.033z M355.81,295.426h-74.447v-5.955
		v-6.618h28.479h45.969V295.426z"/>
</g>
</svg>
