<svg width="25" height="25" xmlns="http://www.w3.org/2000/svg"><defs><path d="M16.154 1.846c3.827 0 6.923 3.178 6.923 7.108 0 5.33-6.923 13.2-6.923 13.2s-6.923-7.87-6.923-13.2c0-3.93 3.095-7.108 6.923-7.108zm0 4.438c-1.619 0-2.93 1.347-2.93 3.008 0 1.662 1.311 3.009 2.93 3.009 1.618 0 2.93-1.347 2.93-3.009 0-1.661-1.312-3.008-2.93-3.008z" id="a"/></defs><g fill="none" fill-rule="evenodd"><path d="M1.432 24.077A.43.43 0 011 23.65V6.505a.43.43 0 01.432-.428h18.136a.43.43 0 01.432.428V23.65a.43.43 0 01-.432.428H1.432zm17.704-.857V6.934H1.864V23.22h17.272z" fill="#FFF" fill-rule="nonzero"/><g transform="translate(0 .077)"><g fill="#FFF" fill-rule="nonzero"><path d="M0 23h21v1H0z"/><path d="M6.45 24c-.249 0-.45-.183-.45-.409V15.41c0-.226.201-.409.45-.409h8.1c.249 0 .45.183.45.41v8.181c0 .226-.201.41-.45.41h-8.1zm7.65-.818v-7.364H6.9v7.364h7.2z"/><path d="M10 15h1v9h-1zM1 9V8h19v1zM1 11v-1h19v1zM1 13v-1h19v1z"/></g><circle fill="#000" cx="17" cy="8" r="4"/><path fill="#fff" stroke="#000" d="M16.154 1.346a7.31 7.31 0 015.255 2.232 7.68 7.68 0 012.168 5.376c0 5.452-7.048 13.53-7.048 13.53s-.132.152-.375.416a24.197 24.197 0 01-.376-.416s-7.047-8.078-7.047-13.53a7.68 7.68 0 012.168-5.376 7.31 7.31 0 015.255-2.232zm0 5.438c-.67 0-1.275.28-1.714.73a2.54 2.54 0 00-.717 1.778c0 .695.274 1.324.717 1.779.439.45 1.044.73 1.714.73.67 0 1.275-.28 1.714-.73a2.54 2.54 0 00.716-1.779 2.54 2.54 0 00-.716-1.778 2.386 2.386 0 00-1.714-.73z"/></g></g></svg>
