<svg width="48" height="48" viewBox="0 0 48 48" fill="none" xmlns="http://www.w3.org/2000/svg">
<circle opacity="0.5" cx="24" cy="24" r="24" fill="#7AC071"/>
<path d="M24.4676 35.4987C28.7774 35.4987 32.2712 31.539 32.2712 26.6546C32.2712 21.7702 28.7774 17.8105 24.4676 17.8105C20.1578 17.8105 16.6641 21.7702 16.6641 26.6546C16.6641 31.539 20.1578 35.4987 24.4676 35.4987Z" stroke="black" stroke-linecap="round" stroke-linejoin="round"/>
<path d="M16.7368 27.8577C16.7368 27.8577 9.77895 15.8768 23.7162 12.6094" stroke="black" stroke-linecap="round" stroke-linejoin="round"/>
<path d="M32.2499 27.2662C32.2499 27.2662 37.4741 16.7714 26.0289 11.569C26.0289 11.569 24.7325 10.9123 22.9074 13.65C20.8265 16.7714 25.4611 17.8864 25.4611 17.8864" stroke="black" stroke-linecap="round" stroke-linejoin="round"/>
<path d="M22.1021 25.1973C21.9363 25.4081 21.7248 25.5785 21.4835 25.6957C21.2422 25.8129 20.9775 25.8738 20.7093 25.8738C20.441 25.8738 20.1763 25.8129 19.935 25.6957C19.6938 25.5785 19.4822 25.4081 19.3164 25.1973" stroke="black" stroke-linecap="round" stroke-linejoin="round"/>
<path d="M26.8066 25.1973C26.9725 25.4081 27.184 25.5785 27.4253 25.6957C27.6665 25.8129 27.9313 25.8738 28.1995 25.8738C28.4677 25.8738 28.7325 25.8129 28.9737 25.6957C29.215 25.5785 29.4265 25.4081 29.5924 25.1973" stroke="black" stroke-linecap="round" stroke-linejoin="round"/>
<path d="M23.3477 32.0234C23.678 32.2477 24.068 32.3676 24.4673 32.3676C24.8666 32.3676 25.2566 32.2477 25.5869 32.0234" stroke="black" stroke-linecap="round" stroke-linejoin="round"/>
<path d="M23.9668 28.9844C24.095 29.11 24.2673 29.1804 24.4468 29.1804C24.6263 29.1804 24.7986 29.11 24.9268 28.9844" stroke="black" stroke-linecap="round" stroke-linejoin="round"/>
</svg>
