<svg width="48" height="48" viewBox="0 0 48 48" fill="none" xmlns="http://www.w3.org/2000/svg">
<circle opacity="0.5" cx="24" cy="24" r="24" fill="#EFA29E"/>
<path fill-rule="evenodd" clip-rule="evenodd" d="M19.0767 33.3914C19.014 34.4807 18.186 35.3334 17.192 35.3334C16.198 35.3334 15.37 34.48 15.3074 33.3914L14.9367 26.9567H19.4474L19.0767 33.3914ZM19.8007 26.29H14.5834C14.4914 26.29 14.404 26.3274 14.3407 26.394C14.278 26.4607 14.2447 26.5507 14.2507 26.642L14.642 33.43C14.7247 34.8714 15.8454 36 17.192 36C18.5387 36 19.6594 34.8714 19.742 33.43L20.1334 26.642C20.1387 26.5507 20.106 26.4607 20.0434 26.394C19.98 26.3274 19.8927 26.29 19.8007 26.29Z" fill="black" stroke="black" stroke-width="0.25"/>
<path fill-rule="evenodd" clip-rule="evenodd" d="M15.1048 15.1307C14.9208 15.1307 14.7715 15.28 14.7715 15.464C14.7715 15.648 14.9208 15.7973 15.1048 15.7973H16.8582V16.684H15.6268C15.4422 16.684 15.2935 16.8333 15.2935 17.0173C15.2935 17.2013 15.4422 17.3507 15.6268 17.3507H16.8582V18.2607H16.5395C16.3555 18.2607 16.2062 18.41 16.2062 18.594C16.2062 18.7787 16.3555 18.9273 16.5395 18.9273H16.8582V25.5653H17.5248V18.9273H17.8442C18.0282 18.9273 18.1775 18.7787 18.1775 18.594C18.1775 18.41 18.0282 18.2607 17.8442 18.2607H17.5248V17.3507H18.7575C18.9415 17.3507 19.0908 17.2013 19.0908 17.0173C19.0908 16.8333 18.9415 16.684 18.7575 16.684H17.5248V15.7973H19.2788C19.4628 15.7973 19.6122 15.648 19.6122 15.464C19.6122 15.28 19.4628 15.1307 19.2788 15.1307H17.5248V14.2273H19.2788C19.4628 14.2273 19.6122 14.078 19.6122 13.894C19.6122 13.7093 19.4628 13.5607 19.2788 13.5607H17.5248V12.6667H18.2355C18.4195 12.6667 18.5688 12.518 18.5688 12.3333C18.5688 12.1493 18.4195 12 18.2355 12H17.5248H16.8582H16.1482C15.9642 12 15.8148 12.1493 15.8148 12.3333C15.8148 12.518 15.9642 12.6667 16.1482 12.6667H16.8582V13.5607H15.1048C14.9208 13.5607 14.7715 13.7093 14.7715 13.894C14.7715 14.078 14.9208 14.2273 15.1048 14.2273H16.8582V15.1307H15.1048Z" fill="black" stroke="black" stroke-width="0.25"/>
<path fill-rule="evenodd" clip-rule="evenodd" d="M32.5104 34.6233C32.5104 35.0146 32.1918 35.3333 31.8004 35.3333H26.2058C25.8144 35.3333 25.4958 35.0146 25.4958 34.6233V26.0546H32.5104V34.6233ZM24.8291 25.3879V34.6233C24.8291 35.3826 25.4471 35.9999 26.2058 35.9999H31.8004C32.5591 35.9999 33.1771 35.3826 33.1771 34.6233V25.3879H24.8291Z" fill="black" stroke="black" stroke-width="0.25"/>
<path fill-rule="evenodd" clip-rule="evenodd" d="M30.7574 20.1449H27.25V19.5156V18.1623V17.1276L27.26 17.1209C27.2574 17.1076 27.252 17.0969 27.25 17.0829V16.8869C27.2594 16.3683 27.6087 15.7269 28.208 15.1276C29.1307 14.2063 30.194 13.9836 30.5714 14.3589C30.6854 14.4729 30.7367 14.6363 30.746 14.8363V14.8356V14.8389C30.7474 14.8656 30.7567 14.8849 30.756 14.9136C30.7554 14.9316 30.7474 14.9516 30.746 14.9696V16.6476C30.7494 16.6436 30.754 16.6389 30.7574 16.6349V20.1449ZM31.424 20.1903V14.9343C31.424 14.9329 31.4234 14.9316 31.4234 14.9303C31.424 14.9249 31.4247 14.9189 31.4247 14.9136C31.4247 14.9069 31.422 14.9009 31.4214 14.8943C31.4254 14.4916 31.2974 14.1436 31.0434 13.8883C30.332 13.1796 28.88 13.5149 27.7367 14.6563C27.0047 15.3883 26.5947 16.1776 26.5834 16.8789V16.8843V20.1903C25.9854 20.3403 25.54 20.8782 25.54 21.5216V24.6956H26.2067V21.5216C26.2067 21.1302 26.5247 20.8116 26.9167 20.8116H31.0907C31.482 20.8116 31.8007 21.1302 31.8007 21.5216V24.6956H32.4674V21.5216C32.4674 20.8782 32.0214 20.3403 31.424 20.1903Z" fill="black" stroke="black" stroke-width="0.25"/>
</svg>
