<svg width="48" height="48" viewBox="0 0 48 48" fill="none" xmlns="http://www.w3.org/2000/svg">
<circle opacity="0.5" cx="24" cy="24" r="24" fill="#FACE85"/>
<path d="M20.4688 26.2753C24.5936 26.2753 27.9375 24.9317 27.9375 23.2744C27.9375 21.617 24.5936 20.2734 20.4688 20.2734C16.3439 20.2734 13 21.617 13 23.2744C13 24.9317 16.3439 26.2753 20.4688 26.2753Z" stroke="black" stroke-linecap="round" stroke-linejoin="round"/>
<path d="M13 23.2744V29.2763C13 30.9336 16.3439 32.2772 20.4688 32.2772C24.5936 32.2772 27.9375 30.9336 27.9375 29.2763V23.2744" stroke="black" stroke-linecap="round" stroke-linejoin="round"/>
<path d="M21.3131 18.758C21.2048 18.3934 21.2367 18.0015 21.4027 17.6593C22.1795 16.1953 25.763 16.5756 29.4068 18.5088C33.0507 20.442 35.3748 23.196 34.5981 24.6601C34.0316 25.7278 31.9725 25.8146 29.4859 25.0336" stroke="black" stroke-linecap="round" stroke-linejoin="round"/>
<path d="M34.5977 24.6599L35.5359 22.8915C36.3127 21.4275 33.9885 18.6734 30.3447 16.7402C26.7009 14.807 23.1173 14.4267 22.3406 15.8908L21.4023 17.6592" stroke="black" stroke-linecap="round" stroke-linejoin="round"/>
<path d="M20.9691 22.2773C20.9691 22.2773 16.196 22.2773 17.9691 24.2773" stroke="black" stroke-linecap="round" stroke-linejoin="round"/>
</svg>
