<svg width="48" height="48" viewBox="0 0 48 48" fill="none" xmlns="http://www.w3.org/2000/svg">
<circle opacity="0.5" cx="24" cy="24" r="24" fill="#74B1C8"/>
<g clip-path="url(#clip0_2895_255154)">
<path d="M25.9742 12.4332C26.1312 12.1193 26.4964 11.9701 26.8283 12.0844L35.4532 15.0552C35.8188 15.1811 36.013 15.5795 35.8782 15.9689L35.8605 16.0111L33.699 20.6781L33.6998 31.0663C33.6998 31.3497 33.529 31.6051 33.267 31.7133L24.467 35.3481C24.3823 35.3831 24.2915 35.4011 24.1998 35.4011C24.126 35.4011 24.0549 35.3897 23.9881 35.3685C23.9288 35.3833 23.8654 35.3923 23.7998 35.3923C23.7019 35.3923 23.605 35.3718 23.5155 35.332L14.9155 31.5098C14.6627 31.3974 14.4998 31.1468 14.4998 30.8701L14.499 20.5791L14.4976 20.5745L13.1601 16.5622C13.0379 16.1954 13.2361 15.799 13.6029 15.6768C13.7577 15.6251 13.9258 15.6293 14.0779 15.6884L20.204 18.0711L23.746 16.8901L25.9742 12.4332ZM32.7008 21.6321L24.5008 24.8411V34.2521L32.7008 30.8641V21.6321ZM15.499 27.0211V28.9211L23.499 32.4771V30.5771L15.499 27.0211ZM29.1973 23.9687C29.2028 23.9615 29.2095 23.9675 29.2047 23.9753C28.422 25.3394 29.4933 27.9173 29.4933 29.1633C29.4933 30.2204 29.0557 31.1007 28.4651 31.9499C28.4492 31.9727 28.4395 31.9725 28.4543 31.9356C29.2558 30.2637 27.9961 28.3086 28.2568 26.4366C28.4233 25.2414 28.9409 24.3084 29.1973 23.9687ZM15.499 22.7211V24.5211L23.499 28.0771V26.2771L15.499 22.7211ZM23.8183 17.9224L21.664 18.6381L22.59 18.9987C22.7575 19.0638 22.8922 19.1903 22.9684 19.3502L23.0068 19.45L24.322 23.8361L31.596 20.9901L24.0231 18.0456C23.9461 18.0157 23.8774 17.9736 23.8183 17.9224ZM14.3108 16.8521L15.4038 20.1321L23.2068 23.6001L22.0908 19.8771L14.3108 16.8521ZM26.7508 13.1151L24.6918 17.2321L32.7438 20.3631L34.8138 15.8921L26.7508 13.1151Z" fill="black"/>
</g>
<defs>
<clipPath id="clip0_2895_255154">
<rect width="24" height="24" fill="white" transform="translate(12 12)"/>
</clipPath>
</defs>
</svg>
