<svg xmlns="http://www.w3.org/2000/svg" width="24" height="24"><path fill="#231F20" d="M21.912 3.724c2.728 2.192 2.587 7.161.07 9.674-2.219 2.77-7.41 8.104-9.225 9.559a1.276 1.276 0 01-1.598 0c-1.817-1.456-7.007-6.789-9.189-9.518-2.56-2.56-2.696-7.55.013-9.695 2.634-2.633 7.712-2.352 9.975 1.05 2.256-3.394 7.314-3.682 9.954-1.07zm-.644.766c-2.408-2.403-7.219-1.95-8.858 1.533a.5.5 0 01-.905 0c-1.64-3.482-6.45-3.936-8.858-1.533-2.25 1.784-2.133 6.079.067 8.282 2.175 2.717 7.314 7.998 9.07 9.404a.275.275 0 00.347 0c1.755-1.406 6.895-6.687 9.108-9.445 2.163-2.162 2.279-6.457.029-8.241z"/></svg>