<svg width="24" height="24" xmlns="http://www.w3.org/2000/svg"><g fill="#FFF" fill-rule="nonzero"><path d="M11.825 3.006c-2.397 0-2.697.01-3.639.052-.939.043-1.58.191-2.142.408A4.328 4.328 0 004.481 4.48a4.3 4.3 0 00-1.018 1.555c-.218.558-.367 1.196-.41 2.13C3.01 9.102 3 9.4 3 11.785c0 2.384.01 2.683.053 3.619.043.934.192 1.572.41 2.13a4.3 4.3 0 001.018 1.556c.49.488.983.788 1.563 1.012.562.217 1.203.366 2.142.408.942.043 1.242.053 3.639.053 2.396 0 2.697-.01 3.638-.053.94-.042 1.58-.19 2.142-.408a4.329 4.329 0 001.563-1.012 4.3 4.3 0 001.018-1.555c.218-.559.368-1.197.41-2.131.043-.936.053-1.235.053-3.62 0-2.383-.01-2.682-.053-3.618-.042-.935-.192-1.573-.41-2.131a4.3 4.3 0 00-1.018-1.555 4.328 4.328 0 00-1.563-1.013c-.561-.217-1.203-.365-2.142-.408-.941-.042-1.242-.052-3.638-.052m0 1.581c2.356 0 2.635.01 3.566.051.86.04 1.327.182 1.638.303.412.159.706.35 1.015.656.309.307.5.6.66 1.01.12.309.265.774.304 1.63.042.925.051 1.203.051 3.547 0 2.344-.009 2.621-.051 3.547-.04.856-.183 1.32-.304 1.63a2.72 2.72 0 01-.66 1.01 2.735 2.735 0 01-1.015.656c-.31.12-.778.263-1.638.302-.93.042-1.21.051-3.566.051-2.357 0-2.636-.009-3.566-.05-.86-.04-1.328-.183-1.639-.303a2.736 2.736 0 01-1.015-.657c-.308-.307-.5-.6-.66-1.01-.12-.308-.264-.773-.304-1.63-.042-.925-.05-1.202-.05-3.546s.008-2.622.05-3.547c.04-.856.184-1.321.304-1.63.16-.41.352-.703.66-1.01a2.736 2.736 0 011.015-.656c.311-.12.778-.264 1.639-.303.93-.042 1.21-.05 3.566-.05"/><path d="M12 14.921a2.921 2.921 0 110-5.842 2.921 2.921 0 010 5.842M12 7.5a4.5 4.5 0 100 9 4.5 4.5 0 000-9M18 7.125a1.125 1.125 0 11-2.25 0 1.125 1.125 0 012.25 0"/></g></svg>