<svg width="47" height="12" viewBox="0 0 47 12" fill="none" xmlns="http://www.w3.org/2000/svg">
<path d="M8.83645 0.25H6.36398C6.36398 2.28635 5.43265 4.14466 3.81391 5.3687L2.83823 6.10312L6.63008 11.2886H9.7456L6.25311 6.51484C7.90511 4.86795 8.83645 2.64243 8.83645 0.25Z" fill="black"/>
<path d="M2.52781 0.25H-9.15527e-05V11.2886H2.52781V0.25Z" fill="black"/>
<path d="M12.8611 0.25H10.4773V11.2886H12.8611V0.25Z" fill="black"/>
<path d="M33.7716 3.4436C32.8624 3.4436 31.9976 3.72179 31.4211 4.51185V3.65503H29.1593V11.2886H31.4543V7.28262C31.4543 6.12535 32.2305 5.55785 33.1618 5.55785C34.1596 5.55785 34.7362 6.15874 34.7362 7.2715V11.2997H37.0091V6.43693C37.0091 4.65651 35.601 3.4436 33.7716 3.4436Z" fill="black"/>
<path d="M20.0681 3.65503V4.14464C19.425 3.69954 18.6489 3.4436 17.8063 3.4436C15.5888 3.4436 13.7927 5.24627 13.7927 7.47179C13.7927 9.69731 15.5888 11.5 17.8063 11.5C18.6489 11.5 19.425 11.2441 20.0681 10.7989V11.2886H22.341V3.65503H20.0681ZM17.9948 9.43025C16.8528 9.43025 15.9325 8.55117 15.9325 7.47179C15.9325 6.39242 16.8528 5.51334 17.9948 5.51334C19.1368 5.51334 20.057 6.39242 20.057 7.47179C20.057 8.55117 19.1368 9.43025 17.9948 9.43025Z" fill="black"/>
<path d="M25.8664 4.64539V3.65503H23.5381V11.2886H25.8775V7.72773C25.8775 6.52595 27.1747 5.88055 28.0728 5.88055C28.0839 5.88055 28.095 5.88055 28.095 5.88055V3.65503C27.1747 3.65503 26.321 4.05562 25.8664 4.64539Z" fill="black"/>
<path d="M44.0828 3.65503V4.14464C43.4398 3.69954 42.6637 3.4436 41.821 3.4436C39.6036 3.4436 37.8074 5.24627 37.8074 7.47179C37.8074 9.69731 39.6036 11.5 41.821 11.5C42.6637 11.5 43.4398 11.2441 44.0828 10.7989V11.2886H46.3557V3.65503H44.0828ZM42.0095 9.43025C40.8675 9.43025 39.9473 8.55117 39.9473 7.47179C39.9473 6.39242 40.8675 5.51334 42.0095 5.51334C43.1515 5.51334 44.0717 6.39242 44.0717 7.47179C44.0828 8.55117 43.1515 9.43025 42.0095 9.43025Z" fill="black"/>
</svg>
