<svg xmlns="http://www.w3.org/2000/svg" viewBox="0 0 56 12"><path d="M0 11.7c.9 0 1.2-.2 1.2-1.2V1.6C1.2.6.9.3 0 .3V.2h4v.1c-1 0-1.2.3-1.2 1.2v8.8c0 1 .3 1.3 1.2 1.3v.1H0M14.7.2v.1c-.9 0-1.2.6-1.2 2.1v9.3H13L6 1.6v7.7c0 1.5.4 2.2 1.5 2.2v.1H4.7v-.1c.9 0 1.2-.7 1.2-2.1V1.6C5.9.6 5.6.3 4.7.3V.2H7l6.4 9.3v-7C13.4.9 13 .3 12 .3V.2h2.7m4.2 4.9c1.4.8 2.8 1.6 2.8 3.5s-1.5 3.1-3.8 3.1-3.2-1.3-3.2-2.2c0-.6.4-1 .9-1 .4 0 .7.2.9.5-.2.2-.4.5-.4.9 0 .7.5 1.6 2 1.6 1.4 0 2.4-.7 2.4-2 0-1.5-1.3-2.3-2.5-3.1-1.4-.8-2.8-1.7-2.8-3.5S16.7 0 18.7 0c1.6 0 2.6.8 2.6 1.7 0 .6-.3.9-.8.9-.4 0-.7-.2-.9-.5.2-.2.3-.5.3-.8 0-.5-.4-1.1-1.5-1.1-1.4 0-1.9.8-1.9 1.9-.2 1.6 1.1 2.3 2.4 3m3.2 6.6c.9 0 1.2-.2 1.2-1.2V1.6c0-1-.3-1.3-1.2-1.3V.2h4v.1c-.9 0-1.2.2-1.2 1.2v8.8c0 1 .3 1.3 1.2 1.3v.1h-4m13.7-5.6c0-3.9-1.5-5.7-4.7-5.7-.5 0-1 .1-1.5.1v10.1c0 .8.4 1.1 1.8 1.1 2.9 0 4.5-1.7 4.4-5.6zm1.7-.2c0 4.9-3.4 5.8-6.2 5.8h-4.5v-.1c.9 0 1.2-.2 1.2-1.2V1.6c0-1-.3-1.3-1.2-1.3V.2H28c1 0 2.2-.1 3.3-.1 4.2 0 6.2 2 6.2 5.8zm8.1 2.8l-.4 3.1h-7.4v-.1c.9 0 1.2-.2 1.2-1.2V1.6c0-1-.3-1.3-1.2-1.3V.2h7.4V3H45C44.3.9 43.8.4 42.1.4h-1.5v5.3h1.3c1.2 0 1.4-.4 1.8-1.9h.1v4h-.2c-.4-1.5-.6-1.9-1.8-1.9h-1.3v5.7h1.3c1.9 0 2.6-.6 3.6-2.9h.2m3.9-2.6c2.3 0 3.1-.8 3.1-2.9 0-2-1.1-2.8-2.8-2.8-.3 0-.7.1-1 .1v5.6h.7zm6.5 5.8c-.3.1-.7.1-.9.1-1.7 0-2-1.2-2.3-2.5-.4-1.5-.8-3.1-3.4-3.1h-.6v4.1c0 1 .3 1.3 1.2 1.3v.1h-4v-.1c.9 0 1.2-.2 1.2-1.2v-9c0-1-.3-1.3-1.2-1.3V.2h3.9c2.8 0 4.5 1 4.5 3 0 1.8-1.1 2.8-3.8 3 5.5.1 2.7 5.3 5.4 5.5v.2z"/></svg>
