<svg width="166" height="31" fill="none" xmlns="http://www.w3.org/2000/svg"><path d="M13.662 15.17c0-2.786-2.095-4.745-4.67-4.745-2.574 0-4.67 1.992-4.67 4.745 0 2.72 2.096 4.744 4.67 4.744 2.577-.002 4.67-1.958 4.67-4.744Zm.037 8.292v-2.156c-1.27 1.494-3.16 2.42-5.424 2.42C3.57 23.727 0 20.077 0 15.17c0-4.877 3.707-8.59 8.38-8.59 2.198 0 4.052.93 5.322 2.387v-2.09h4.222v16.585H13.7ZM38.436 19.78c-1.478 0-1.888-.531-1.888-1.923v-7.363h2.714V6.877h-2.714V2.831H32.22v4.046h-5.574V5.87c0-1.395.55-1.925 2.061-1.925h.95V.726h-2.083c-3.57 0-5.253 1.127-5.253 4.576v1.573h-2.404v3.616h2.404V23.46h4.328V10.49h5.574v8.128c0 3.383 1.338 4.843 4.84 4.843h2.233V19.78h-.86ZM53.957 13.676c-.307-2.156-2.13-3.449-4.257-3.449-2.13 0-3.88 1.26-4.325 3.45h8.582Zm-8.619 2.589c.31 2.453 2.13 3.847 4.43 3.847 1.82 0 3.23-.83 4.053-2.156h4.43c-1.03 3.515-4.294 5.77-8.585 5.77-5.185 0-8.824-3.515-8.824-8.523 0-5.009 3.847-8.626 8.93-8.626 5.116 0 8.824 3.65 8.824 8.626 0 .366-.035.729-.103 1.062H45.338ZM86.112 15.17c0-2.687-2.096-4.745-4.67-4.745s-4.67 1.992-4.67 4.745c0 2.72 2.096 4.744 4.67 4.744 2.574-.002 4.67-2.057 4.67-4.744Zm-13.6-8.293h4.224v2.157c1.27-1.527 3.157-2.454 5.424-2.454 4.636 0 8.275 3.683 8.275 8.557 0 4.876-3.708 8.592-8.378 8.592-2.164 0-3.949-.83-5.185-2.222v8.78h-4.36V6.877ZM105.656 15.17c0-2.786-2.093-4.745-4.67-4.745-2.574 0-4.67 1.992-4.67 4.745 0 2.72 2.096 4.744 4.67 4.744 2.577-.002 4.67-1.958 4.67-4.744Zm.037 8.292v-2.156c-1.27 1.494-3.161 2.42-5.425 2.42-4.704 0-8.274-3.65-8.274-8.556 0-4.877 3.707-8.59 8.377-8.59 2.198 0 4.052.93 5.322 2.387v-2.09h4.223v16.585h-4.223ZM64.9 8.503s1.076-1.923 3.708-1.923c1.126 0 1.854.373 1.854.373v4.232s-1.588-.948-3.048-.757c-1.459.19-2.382 1.486-2.377 3.218v9.819h-4.359V6.88h4.223v1.623ZM129.638 6.877l-10.662 23.357h-4.496l4.186-9.03-7.078-14.327h5.096l4.141 9.573 4.249-9.573h4.564ZM163.673 6.501 153.103.61c-3.103-1.73-6.981.432-6.981 3.893v.605c0 .546.302 1.051.791 1.323l1.996 1.113c.586.327 1.317-.082 1.317-.734V5.305c0-.752.842-1.222 1.515-.846l9.155 5.105a.958.958 0 0 1 0 1.69l-9.155 5.104c-.673.376-1.515-.093-1.515-.845v-.8c0-3.462-3.878-5.626-6.983-3.894l-10.57 5.893a4.42 4.42 0 0 0 0 7.787l10.57 5.892c3.102 1.73 6.983-.432 6.983-3.893v-.605c0-.546-.302-1.049-.791-1.323l-1.996-1.115c-.586-.328-1.317.081-1.317.734v1.503c0 .752-.841 1.222-1.515.846l-9.155-5.105a.96.96 0 0 1 0-1.691l9.155-5.106c.674-.375 1.515.094 1.515.846v.8c0 3.462 3.878 5.626 6.981 3.894l10.57-5.893a4.416 4.416 0 0 0 0-7.782Z" fill="#000"/></svg>
