<svg width="24" height="25" xmlns="http://www.w3.org/2000/svg"><g fill-rule="nonzero" fill="none"><path d="M23.888 12.099C23.704 5.9 18.634.836 12.403.625 5.538.414-.087 6.032.15 12.89c.185 6.198 5.255 11.262 11.486 11.473 6.865.211 12.463-5.407 12.251-12.264zm-4.34 3.093c-.66 1.979-2.824 4.17-4.804 4.829-4.512 1.504-8.76-.897-10.186-4.671 5.463-1.24 5.04-7.626 5.04-7.626s.581 1.873.185 3.826c4.566-.106 5.832-3.72 6.175-5.964.027 0 .027.027.053.027.37 1.768 1.32 4.01 3.72 4.96.37 1.426.344 3.009-.184 4.619z" fill="#010101"/><path d="M19.758 10.574c-2.401-.924-3.351-3.193-3.72-4.961-.027 0-.027-.027-.053-.027-.343 2.243-1.61 5.885-6.175 5.964.396-1.926-.185-3.826-.185-3.826s.422 6.386-5.04 7.626c1.451 3.8 5.673 6.201 10.186 4.67 1.979-.659 4.143-2.85 4.803-4.828.501-1.61.527-3.193.184-4.618zM13.715 18.2c-.316.185-.633.343-1.002.396h-.027c-.924.185-1.873-.08-2.612-.607l-.528-.37.026-.052c.053 0 .106.026.159.026.554.08 1.082-.105 1.53-.449a.63.63 0 01.37-.131c.21 0 .369.105.5.237.107-.158.291-.237.502-.237a.63.63 0 01.37.131c.448.344.976.555 1.53.45.053 0 .106-.027.159-.027l.026.052-1.003.581zm3.22-5.674c.132.555.37 1.056 1.346 1.162v.026c-.343.08-1.531-.211-2.35-.897.107.58.37 1.187 1.057 1.425v.026c-.37 0-1.4-.528-2.032-1.399-.027.555.079 1.162.633 1.557v.027c-1.9-1.135-2.032-2.402-2.164-2.665l.158-.08c.766 1.267 3.193.898 3.642-.052.053.079.475 1.213 2.137 1.24l.027.026c-.317.159-1.53.106-2.454-.396z" fill="#FFF"/><path d="M14.665 17.567c-.052 0-.105.026-.158.026-.554.08-1.082-.105-1.53-.449a.63.63 0 00-.37-.131c-.211 0-.37.105-.501.237a.59.59 0 00-.475-.264.572.572 0 00-.37.132c-.448.343-.976.554-1.53.449-.053 0-.106-.027-.159-.027l-.026.053.528.37c.765.554 1.715.791 2.612.606h.027c.343-.079.686-.21 1.002-.395l.977-.58-.027-.027zM19.389 12.922v-.026c-1.663-.027-2.111-1.188-2.138-1.24-.475.976-2.902 1.319-3.668.052l-.158.08c.132.263.264 1.556 2.164 2.665v-.027c-.554-.395-.66-.976-.633-1.557.633.845 1.662 1.4 2.032 1.4v-.027c-.687-.238-.95-.845-1.056-1.425.818.712 2.005.976 2.349.897v-.026c-.977-.132-1.214-.607-1.346-1.162.923.502 2.137.555 2.454.396z" fill="#010101"/></g></svg>