<svg width="24" height="24" xmlns="http://www.w3.org/2000/svg"><path d="M9.26 17.528c.331-.562.827-1.455 1.026-2.183.099-.397.529-1.984.529-1.984.264.53 1.058.96 1.885.96 2.513 0 4.299-2.316 4.299-5.193 0-2.744-2.249-4.795-5.093-4.795-3.604.033-5.49 2.447-5.49 5.06 0 1.223.662 2.744 1.687 3.24.166.066.232.034.265-.099.033-.099.165-.694.231-.959.033-.1 0-.165-.066-.231-.33-.43-.628-1.19-.628-1.885 0-1.852 1.389-3.605 3.737-3.605 2.05 0 3.472 1.39 3.472 3.373 0 2.249-1.125 3.803-2.613 3.803-.826 0-1.422-.661-1.223-1.488.231-.992.694-2.05.694-2.777 0-.629-.33-1.158-1.058-1.158-.827 0-1.488.86-1.488 2.017 0 .728.231 1.224.231 1.224s-.793 3.472-.926 4.1c-.165.728-.099 1.72-.033 2.381l.1.893.463-.694zm3.754-8.763c0 .553-.088.895-.459 2.087-.063.205-.105.343-.145.48a9.03 9.03 0 00-.12.453c-.032.138.023.203.211.203.836 0 1.571-1.053 1.571-2.76 0-1.239-.74-2.105-1.927-2.293.555.392.869 1.06.869 1.83zM7.716 13.6l-.067-.03c-1.369-.662-2.274-2.498-2.274-4.177 0-3.435 2.595-6.065 6.531-6.101 3.429 0 6.134 2.523 6.134 5.836 0 3.466-2.243 6.234-5.34 6.234-.44 0-.878-.085-1.28-.24-.06.224-.103.393-.13.497-.196.72-.585 1.508-1.132 2.437l-.03.05-2.05 3.074-.316-2.843-.1-.904c-.108-1.08-.117-1.965.05-2.7.036-.17.117-.535.236-1.06a1.497 1.497 0 01-.232-.073z" fill="#FFF" fill-rule="nonzero"/></svg>