<svg width="24" height="24" xmlns="http://www.w3.org/2000/svg"><g fill-rule="nonzero" fill="none"><path d="M10.5 16.735a1.239 1.239 0 0 1-.613-.2c-.384-.255-.622-.702-.64-1.187l-.001-.059V8.5c0-.506.241-.98.642-1.244.39-.258.888-.27 1.289-.032l.046.028 5.26 3.395c.404.26.649.737.649 1.248 0 .494-.227.954-.605 1.22l-.044.03-5.261 3.396c-.18.116-.387.183-.6.195l-.063.002-.059-.002zm.389-8.951a.596.596 0 0 0-.663.001.846.846 0 0 0-.356.665l-.002.05v6.79c0 .299.14.57.356.713.09.06.19.093.292.1l.043.002.043-.001a.61.61 0 0 0 .248-.075l.039-.023 5.26-3.395c.22-.141.36-.415.36-.716a.859.859 0 0 0-.325-.692l-.036-.024-5.26-3.395z" fill-opacity=".25" fill="#858585"/><path d="M10.89 7.784a.596.596 0 0 0-.664.001.846.846 0 0 0-.356.665l-.002.05v6.79c0 .299.14.57.356.713.09.06.19.093.292.1l.043.002.043-.001a.61.61 0 0 0 .248-.075l.039-.023 5.26-3.395c.22-.141.36-.415.36-.716a.859.859 0 0 0-.325-.692l-.036-.024-5.26-3.395h.001z" fill="#FFF"/><path d="M12.047 2.105c-5.386 0-9.753 4.43-9.753 9.895s4.367 9.895 9.753 9.895c5.387 0 9.754-4.43 9.754-9.895s-4.367-9.895-9.754-9.895zm.104-1.579c6.246 0 11.31 5.09 11.31 11.369 0 6.278-5.064 11.368-11.31 11.368S.84 18.173.84 11.895C.841 5.616 5.905.526 12.151.526z" fill="#FFF"/><path d="M12.047 0C5.515 0 .22 5.373.22 12s5.296 12 11.828 12c6.533 0 11.829-5.373 11.829-12S18.58 0 12.047 0zm0 .632c6.19 0 11.207 5.09 11.207 11.368 0 6.279-5.018 11.368-11.207 11.368C5.86 23.368.841 18.278.841 12 .841 5.721 5.858.632 12.047.632zm0 1.263c-5.5 0-9.96 4.524-9.96 10.105 0 5.58 4.46 10.105 9.96 10.105 5.502 0 9.961-4.524 9.961-10.105 0-5.58-4.46-10.105-9.96-10.105zm0 .526c5.215 0 9.443 4.289 9.443 9.579 0 5.29-4.228 9.58-9.443 9.58S2.605 17.29 2.605 12s4.227-9.58 9.442-9.58v.001z" fill-opacity=".25" fill="#858585"/></g></svg>
