<svg xmlns="http://www.w3.org/2000/svg" width="24" height="24"><g fill="none" fill-rule="evenodd" stroke="#231F20" stroke-linecap="round" stroke-linejoin="round"><path d="M3.557 16.5h.935m3.107 0h.935m-4.977-2h.935m3.107 0h.935m3.001 0h.935m-8.913-2h.935m3.107 0h.935m3.001 0h.935m3.065 0h.935m-12.913-2h.935m3.107 0h.935m3.001 0h.935m3.065 0h.935m-.935-2h.935m-4.935 0h.935m7.03 4.028V2.5a2 2 0 0 0-2-2h-15a2 2 0 0 0-2 2v15a2 2 0 0 0 2 2h10m-12-14h19m-14-3v1m9-1v1"/><path d="M23.5 19a4.5 4.5 0 1 1-9 0 4.5 4.5 0 0 1 9 0z"/><path d="M16.718 19.263l1.507 1.61 3.033-3.241"/></g></svg>