<svg xmlns="http://www.w3.org/2000/svg" width="20" height="20"><g fill="none" fill-rule="evenodd"><path fill="none" d="M0 0h20v20H0z"/><path d="M1.667 14.583h16.288m-.348 3.33H2.393c-.8 0-.724.065-.724-.625v-3.747c0-.69-.075-.625.724-.625h15.214c.8 0 .725-.065.725.625v3.747c0 .69.075.625-.725.625zM2.046 16.25h16.259" stroke="#000" stroke-linecap="round" stroke-linejoin="round" stroke-width=".833"/><path fill="#000" fill-rule="nonzero" d="M19.167 7.292c0 1.035-.947 1.875-2.116 1.875-.736 0-1.385-.334-1.764-.84-.376.506-1.025.84-1.761.84-.737 0-1.385-.334-1.764-.84-.377.506-1.026.84-1.762.84s-1.385-.334-1.764-.84c-.377.506-1.025.84-1.762.84-.736 0-1.385-.334-1.763-.84-.377.506-1.026.84-1.762.84-1.127 0-2.048-.78-2.112-1.765l-.004-.11V6.287c0-.16.046-.317.133-.452l2.442-3.787a.832.832 0 01.7-.381h11.784c.283 0 .547.143.7.381l2.442 3.787a.834.834 0 01.133.452v1.005z"/><path fill="#000" fill-rule="nonzero" d="M4.167 8.333h1V12.5h-1zm10.833 0h1V12.5h-1z"/></g></svg>