<svg width="24" height="24" xmlns="http://www.w3.org/2000/svg"><g transform="translate(2)" fill="none" fill-rule="evenodd"><path d="M13.125 5H.459C.207 5 0 4.775 0 4.5c0-.274.207-.5.459-.5h12.666c.252 0 .459.226.459.5 0 .275-.207.5-.459.5ZM13.125 19H.459C.207 19 0 18.775 0 18.5c0-.274.207-.5.459-.5h12.666c.252 0 .459.226.459.5 0 .275-.207.5-.459.5ZM8.125 3H5.459C5.207 3 5 2.775 5 2.5c0-.274.207-.5.459-.5h2.666c.252 0 .459.226.459.5 0 .275-.207.5-.459.5Z" fill="#FFF"/><circle stroke="#FFF" stroke-width=".8" cx="7" cy="21" r="1"/><path d="M2 1h10a1 1 0 0 1 1 1v20a1 1 0 0 1-1 1H2a1 1 0 0 1-1-1V2a1 1 0 0 1 1-1ZM0 2a2 2 0 0 1 2-2h10a2 2 0 0 1 2 2v4h-1v10h1v6a2 2 0 0 1-2 2H2a2 2 0 0 1-2-2V2Z" fill="#FFF"/><path d="M14.118 14.612a4.17 4.17 0 0 0 5.782-3.845A4.17 4.17 0 0 0 15.73 6.6a4.17 4.17 0 0 0-3.647 6.193L11.4 15.34l2.718-.728Z" fill="#FFF"/></g></svg>