<svg width="24" height="24" xmlns="http://www.w3.org/2000/svg"><path d="M20.25 16.22c-.12-.328-.35-.505-.611-.647-.049-.026-.093-.053-.133-.07l-.238-.12c-.814-.433-1.45-.972-1.888-1.618a3.675 3.675 0 01-.323-.575c-.04-.106-.035-.168-.009-.225a.36.36 0 01.107-.11c.141-.094.283-.187.38-.248.172-.115.314-.204.402-.266.332-.234.566-.482.712-.76.208-.39.234-.845.075-1.256-.221-.584-.77-.942-1.437-.942-.141 0-.278.013-.42.044-.035.01-.075.018-.11.027.004-.398-.005-.818-.04-1.234-.124-1.454-.637-2.215-1.167-2.82a4.67 4.67 0 00-1.185-.956c-.804-.46-1.72-.694-2.714-.694-.995 0-1.905.234-2.71.694a4.67 4.67 0 00-1.185.955c-.53.606-1.039 1.371-1.167 2.821-.035.416-.044.836-.04 1.234l-.11-.027a1.897 1.897 0 00-.416-.044c-.667 0-1.215.363-1.436.942-.16.411-.133.867.075 1.256.146.278.38.526.712.76.088.062.225.15.402.266l.367.238c.048.031.088.071.12.12.026.057.03.12-.014.234a3.524 3.524 0 01-.318.562c-.43.627-1.048 1.163-1.835 1.591-.416.221-.849.367-1.034.867-.138.376-.05.8.3 1.163.128.133.279.248.442.336.34.186.703.332 1.083.433.08.022.15.053.217.098.128.11.11.278.278.526.084.128.195.239.319.327.358.248.76.26 1.184.279.385.013.818.03 1.318.194.208.066.42.2.667.354.597.367 1.41.866 2.776.866 1.366 0 2.184-.504 2.785-.87.248-.15.46-.284.66-.35.494-.164.932-.181 1.316-.194.425-.018.827-.031 1.185-.279a1.2 1.2 0 00.363-.398c.124-.208.12-.354.234-.455a.604.604 0 01.203-.093c.38-.102.752-.248 1.097-.438.172-.093.331-.217.464-.363l.004-.004c.345-.354.43-.77.292-1.132zm-1.212.649c-.738.407-1.234.363-1.614.61-.327.208-.132.659-.367.823-.291.199-1.149-.014-2.254.353-.915.301-1.494 1.172-3.139 1.172-1.644 0-2.21-.867-3.139-1.172-1.105-.367-1.962-.15-2.254-.353-.234-.164-.044-.615-.367-.823-.385-.247-.875-.203-1.614-.61-.473-.26-.203-.42-.048-.495 2.679-1.296 3.108-3.299 3.125-3.45.022-.18.049-.322-.15-.503-.19-.177-1.039-.703-1.278-.867-.389-.274-.561-.544-.433-.88.089-.23.305-.318.53-.318.071 0 .142.009.213.022.429.093.844.305 1.083.367.03.009.057.013.088.013.128 0 .173-.066.164-.212-.027-.469-.093-1.38-.018-2.233.102-1.172.478-1.755.929-2.268.216-.248 1.228-1.318 3.17-1.318 1.94 0 2.952 1.066 3.169 1.313.45.513.826 1.097.928 2.269.075.853.009 1.764-.022 2.233-.009.154.035.212.164.212.03 0 .057-.005.088-.013.239-.058.654-.275 1.083-.367a.866.866 0 01.212-.022c.226 0 .442.088.53.318.129.336-.044.606-.433.88-.234.163-1.083.69-1.277.866-.199.182-.173.323-.15.505.017.15.446 2.153 3.125 3.448.16.076.424.24-.044.5z" fill="#FFF" fill-rule="nonzero"/></svg>