<svg width="24" height="24" xmlns="http://www.w3.org/2000/svg"><path d="M8.608 18.97c6.738 0 10.424-5.569 10.424-10.39 0-.156 0-.313-.007-.47a7.45 7.45 0 001.83-1.894 7.444 7.444 0 01-2.108.577A3.676 3.676 0 0020.36 4.77c-.707.42-1.493.719-2.329.883A3.662 3.662 0 0015.36 4.5a3.662 3.662 0 00-3.572 4.486A10.415 10.415 0 014.236 5.17a3.658 3.658 0 001.136 4.878 3.716 3.716 0 01-1.658-.455v.05a3.662 3.662 0 002.937 3.581 3.58 3.58 0 01-.965.128c-.235 0-.464-.021-.686-.064a3.662 3.662 0 003.423 2.535 7.363 7.363 0 01-4.551 1.567c-.293 0-.586-.014-.872-.05a10.446 10.446 0 005.608 1.63" fill="#FFF" fill-rule="nonzero"/></svg>