<svg xmlns="http://www.w3.org/2000/svg" width="48" height="32" viewBox="0 0 48 32"><g fill="none" fill-rule="evenodd"><g fill-rule="nonzero"><path fill="#C00" d="M0 0h47.948v2.456H0V0zm0 4.913h47.948V7.37H0V4.912zm0 4.913h47.948v2.456H0V9.826zm0 4.913h47.948v2.455H0V14.74zm0 4.912h47.948v2.456H0v-2.456zm0 4.912h47.948v2.457H0v-2.456zm0 4.913h47.948v2.457H0v-2.457z"/><path fill="#FFF" d="M0 2.456h47.948v2.457H0V2.456zM0 7.37h47.948v2.456H0V7.37zm0 4.912h47.948v2.457H0V12.28zm0 4.913h47.948v2.457H0v-2.457zm0 4.913h47.948v2.456H0v-2.456zm0 4.913h47.948v2.457H0V27.02z"/></g><path fill="#192F5D" fill-rule="nonzero" d="M0 0h19v17H0"/><path d="M1.72 1l.17.655h.55l-.445.405.17.655-.445-.405-.445.405.17-.655L1 1.655h.55L1.72 1zm3.112 0l.17.655h.55l-.445.405.17.655-.445-.405-.445.405.17-.655-.445-.405h.55L4.832 1zm3.112 0l.17.655h.55l-.445.405.17.655-.446-.405-.445.405.17-.655-.446-.405h.55L7.944 1zm3.112 0l.17.655h.55l-.445.405.17.655-.444-.405-.445.405.17-.655-.444-.405h.55l.17-.655zm3.112 0l.17.655h.55l-.445.405.17.655-.445-.405-.445.405.17-.655-.445-.405h.55l.17-.655zm3.112 0l.17.655H18l-.445.405.17.655-.445-.405-.445.405.17-.655-.444-.405h.55L17.28 1zM3.276 2.657l.17.655h.55l-.445.405.17.655-.444-.405-.445.405.17-.655-.444-.405h.55l.17-.655zm3.112 0l.17.655h.55l-.445.405.17.655-.445-.405-.445.405.17-.655-.445-.405h.55l.17-.655zm3.112 0l.17.655h.55l-.445.405.17.655-.445-.405-.445.405.17-.655-.445-.405h.55l.17-.655zm3.112 0l.17.655h.55l-.445.405.17.655-.445-.405-.445.405.17-.655-.445-.405h.55l.17-.655zm3.112 0l.17.655h.55L16 3.717l.17.655-.446-.405-.445.405.17-.655-.446-.405h.55l.17-.655zM1.72 4.314l.17.655h.55l-.445.404.17.655-.445-.406-.445.405.17-.656L1 4.97h.55l.17-.656zm3.112 0l.17.655h.55l-.445.404.17.655-.445-.406-.445.405.17-.656-.445-.405h.55l.17-.656zm3.112 0l.17.655h.55l-.445.404.17.655-.446-.406-.445.405.17-.656-.446-.405h.55l.17-.656zm3.112 0l.17.655h.55l-.445.404.17.655-.444-.406-.445.405.17-.656-.444-.405h.55l.17-.656zm3.112 0l.17.655h.55l-.445.404.17.655-.445-.406-.445.405.17-.656-.445-.405h.55l.17-.656zm3.112 0l.17.655H18l-.445.404.17.655-.445-.406-.445.405.17-.656-.444-.405h.55l.17-.656zM3.276 5.97l.17.656h.55l-.445.405.17.656-.444-.405-.445.406L3 7.03l-.444-.404h.55l.17-.655zm3.112 0l.17.656h.55l-.445.405.17.656-.445-.405-.445.406.17-.655-.445-.404h.55l.17-.655zm3.112 0l.17.656h.55l-.445.405.17.656L9.5 7.28l-.445.406.17-.655-.445-.404h.55l.17-.655zm3.112 0l.17.656h.55l-.445.405.17.656-.445-.405-.445.406.17-.655-.445-.404h.55l.17-.655zm3.112 0l.17.656h.55L16 7.03l.17.656-.446-.405-.445.406.17-.655-.446-.404h.55l.17-.655zM1.72 7.63l.17.655h.55l-.445.405.17.655-.445-.405-.445.405.17-.655L1 8.283h.55l.17-.655zm3.112 0l.17.655h.55l-.445.405.17.655-.445-.405-.445.405.17-.655-.445-.405h.55l.17-.655zm3.112 0l.17.655h.55l-.445.405.17.655-.446-.405-.445.405.17-.655-.446-.405h.55l.17-.655zm3.112 0l.17.655h.55l-.445.405.17.655-.444-.405-.445.405.17-.655-.444-.405h.55l.17-.655zm3.112 0l.17.655h.55l-.445.405.17.655-.445-.405-.445.405.17-.655-.445-.405h.55l.17-.655zm3.112 0l.17.655H18l-.445.405.17.655-.445-.405-.445.405.17-.655-.444-.405h.55l.17-.655zM3.276 9.285l.17.655h.55l-.445.405.17.655-.444-.405L2.83 11l.17-.655-.444-.405h.55l.17-.655zm3.112 0l.17.655h.55l-.445.405.17.655-.445-.405-.445.405.17-.655-.445-.405h.55l.17-.655zm3.112 0l.17.655h.55l-.445.405.17.655-.445-.405-.445.405.17-.655-.445-.405h.55l.17-.655zm3.112 0l.17.655h.55l-.445.405.17.655-.445-.405-.445.405.17-.655-.445-.405h.55l.17-.655zm3.112 0l.17.655h.55l-.445.405.17.655-.446-.405-.445.405.17-.655-.446-.405h.55l.17-.655zM1.72 11l.17.583h.55l-.445.36.17.583-.445-.36-.445.36.17-.583-.445-.36h.55L1.72 11zm3.112 0l.17.583h.55l-.445.36.17.583-.445-.36-.445.36.17-.583-.445-.36h.55l.17-.583zm3.112 0l.17.583h.55l-.445.36.17.583-.446-.36-.445.36.17-.583-.446-.36h.55l.17-.583zm3.112 0l.17.583h.55l-.445.36.17.583-.444-.36-.445.36.17-.583-.444-.36h.55l.17-.583zm3.112 0l.17.583h.55l-.445.36.17.583-.445-.36-.445.36.17-.583-.445-.36h.55l.17-.583zm3.112 0l.17.583H18l-.445.36.17.583-.445-.36-.445.36.17-.583-.444-.36h.55l.17-.583zM3.276 12.474l.17.583h.55l-.445.36.17.583-.444-.36-.445.36.17-.583-.444-.36h.55l.17-.583zm3.112 0l.17.583h.55l-.445.36.17.583-.445-.36-.445.36.17-.583-.445-.36h.55l.17-.583zm3.112 0l.17.583h.55l-.445.36.17.583-.445-.36-.445.36.17-.583-.445-.36h.55l.17-.583zm3.112 0l.17.583h.55l-.445.36.17.583-.445-.36-.445.36.17-.583-.445-.36h.55l.17-.583zm3.112 0l.17.583h.55l-.445.36.17.583-.446-.36-.445.36.17-.583-.446-.36h.55l.17-.583zM1.72 14l.17.764h.55l-.445.472.17.764-.445-.472-.445.472.17-.764L1 14.764h.55L1.72 14zm3.112 0l.17.764h.55l-.445.472.17.764-.445-.472-.445.472.17-.764-.445-.472h.55l.17-.764zm3.112 0l.17.764h.55l-.445.472.17.764-.446-.472L7.5 16l.17-.764-.446-.472h.55l.17-.764zm3.112 0l.17.764h.55l-.445.472.17.764-.444-.472-.445.472.17-.764-.444-.472h.55l.17-.764zm3.112 0l.17.764h.55l-.445.472.17.764-.445-.472-.445.472.17-.764-.445-.472h.55l.17-.764zm3.112 0l.17.764H18l-.445.472.17.764-.445-.472-.445.472.17-.764-.444-.472h.55l.17-.764z" fill="#FFF" fill-rule="nonzero"/><path stroke="#CCC" stroke-width=".5" d="M.25.25h47.5v31.5H.25z"/></g></svg>